<?xml version="1.0" encoding="UTF-8" standalone="no"?>
<!DOCTYPE svg PUBLIC "-//W3C//DTD SVG 1.1//EN"
 "http://www.w3.org/Graphics/SVG/1.1/DTD/svg11.dtd">
<!-- Generated by graphviz version 2.50.0 (20211204.2007)
 -->
<!-- Pages: 1 -->
<svg width="224pt" height="188pt"
 viewBox="0.00 0.00 223.79 188.00" xmlns="http://www.w3.org/2000/svg" xmlns:xlink="http://www.w3.org/1999/xlink">
<g id="graph0" class="graph" transform="scale(1 1) rotate(0) translate(4 184)">
<polygon fill="white" stroke="transparent" points="-4,4 -4,-184 219.79,-184 219.79,4 -4,4"/>
<!-- Burglary -->
<g id="node1" class="node">
<title>Burglary</title>
<ellipse fill="none" stroke="black" cx="48.5" cy="-162" rx="42.49" ry="18"/>
<text text-anchor="middle" x="48.5" y="-158.3" font-family="Times,serif" font-size="14.00">Burglary</text>
</g>
<!-- Alarm -->
<g id="node3" class="node">
<title>Alarm</title>
<ellipse fill="none" stroke="black" cx="103.5" cy="-90" rx="33.6" ry="18"/>
<text text-anchor="middle" x="103.5" y="-86.3" font-family="Times,serif" font-size="14.00">Alarm</text>
</g>
<!-- Burglary&#45;&gt;Alarm -->
<g id="edge1" class="edge">
<title>Burglary&#45;&gt;Alarm</title>
<path fill="none" stroke="black" d="M61.25,-144.76C68.19,-135.93 76.92,-124.83 84.63,-115.01"/>
<polygon fill="black" stroke="black" points="87.38,-117.17 90.81,-107.15 81.88,-112.85 87.38,-117.17"/>
</g>
<!-- Earthquake -->
<g id="node2" class="node">
<title>Earthquake</title>
<ellipse fill="none" stroke="black" cx="159.5" cy="-162" rx="50.89" ry="18"/>
<text text-anchor="middle" x="159.5" y="-158.3" font-family="Times,serif" font-size="14.00">Earthquake</text>
</g>
<!-- Earthquake&#45;&gt;Alarm -->
<g id="edge2" class="edge">
<title>Earthquake&#45;&gt;Alarm</title>
<path fill="none" stroke="black" d="M146.22,-144.41C139.22,-135.66 130.5,-124.75 122.76,-115.08"/>
<polygon fill="black" stroke="black" points="125.27,-112.61 116.29,-106.99 119.8,-116.98 125.27,-112.61"/>
</g>
<!-- Pipu calls -->
<g id="node4" class="node">
<title>Pipu calls</title>
<ellipse fill="none" stroke="black" cx="45.5" cy="-18" rx="45.49" ry="18"/>
<text text-anchor="middle" x="45.5" y="-14.3" font-family="Times,serif" font-size="14.00">Pipu calls</text>
</g>
<!-- Alarm&#45;&gt;Pipu calls -->
<g id="edge3" class="edge">
<title>Alarm&#45;&gt;Pipu calls</title>
<path fill="none" stroke="black" d="M90.33,-73.12C83.02,-64.29 73.77,-53.13 65.58,-43.24"/>
<polygon fill="black" stroke="black" points="68.08,-40.77 59.01,-35.31 62.69,-45.24 68.08,-40.77"/>
</g>
<!-- Urvish calls -->
<g id="node5" class="node">
<title>Urvish calls</title>
<ellipse fill="none" stroke="black" cx="162.5" cy="-18" rx="53.09" ry="18"/>
<text text-anchor="middle" x="162.5" y="-14.3" font-family="Times,serif" font-size="14.00">Urvish calls</text>
</g>
<!-- Alarm&#45;&gt;Urvish calls -->
<g id="edge4" class="edge">
<title>Alarm&#45;&gt;Urvish calls</title>
<path fill="none" stroke="black" d="M116.88,-73.12C124.22,-64.42 133.46,-53.45 141.71,-43.66"/>
<polygon fill="black" stroke="black" points="144.57,-45.7 148.34,-35.8 139.22,-41.19 144.57,-45.7"/>
</g>
</g>
</svg>
